<?xml version="1.0" encoding="utf-8"?>
<!-- Generator: Adobe Illustrator 23.1.0, SVG Export Plug-In . SVG Version: 6.00 Build 0)  -->
<svg version="1.1" id="b90746aa-ab89-4048-b48f-88833dcede4a"
	 xmlns="http://www.w3.org/2000/svg" xmlns:xlink="http://www.w3.org/1999/xlink" x="0px" y="0px" viewBox="0 0 888.2 478"
	 style="enable-background:new 0 0 888.2 478;" xml:space="preserve">
<style type="text/css">
	.st0{fill:#3F3D56;}
	.st1{fill:#FF6584;}
	.st2{fill:#0277BD;}
	.st3{fill:#FFFFFF;}
	.st4{opacity:0.2;enable-background:new    ;}
</style>
<title>quite_town</title>
<path class="st0" d="M192,477h-2c0-51.9-42.1-94-94-94S2,425.1,2,477H0c0-53,43-96,96-96S192,424,192,477z"/>
<path class="st0" d="M888,477h-2c0-51.9-42.1-94-94-94s-94,42.1-94,94h-2c0-53,43-96,96-96S888,424,888,477z"/>
<path class="st0" d="M653,248h-2c0-94.8-77.2-172-172-172c-94.8,0-172,77.2-172,172h-2c0-95.9,78.1-174,174-174
	C574.9,74,653,152.1,653,248z"/>
<circle class="st1" cx="145.5" cy="39.5" r="39.5"/>
<polygon class="st0" points="153.9,311.4 221.8,230.6 355.2,230.6 436.7,310 435.1,311 435.6,311 435.6,476.2 154,476.2 154,311 "/>
<rect x="194.7" y="223" class="st0" width="15.4" height="53.2"/>
<polygon class="st2" points="220.7,229.5 304.3,327.6 304.3,476.2 154,476.2 154,308.9 "/>
<rect x="254.3" y="347" class="st0" width="30.7" height="31.4"/>
<rect x="254.3" y="389.8" class="st0" width="30.7" height="31.4"/>
<rect x="254.3" y="347" class="st3" width="30.7" height="31.4"/>
<rect x="254.3" y="389.8" class="st3" width="30.7" height="31.4"/>
<rect x="211.8" y="347" class="st0" width="30.7" height="31.4"/>
<rect x="211.8" y="389.8" class="st0" width="30.7" height="31.4"/>
<rect x="211.8" y="347" class="st3" width="30.7" height="31.4"/>
<rect x="211.8" y="389.8" class="st3" width="30.7" height="31.4"/>
<rect x="169.4" y="347" class="st0" width="30.7" height="31.4"/>
<rect x="169.4" y="389.8" class="st0" width="30.7" height="31.4"/>
<rect x="169.4" y="347" class="st3" width="30.7" height="31.4"/>
<rect x="169.4" y="389.8" class="st3" width="30.7" height="31.4"/>
<rect x="485" y="40" class="st2" width="14" height="35"/>
<rect x="379" y="72" class="st2" width="119" height="405"/>
<rect x="498" y="72" class="st0" width="48" height="405"/>
<rect x="400.5" y="107" class="st3" width="18" height="18"/>
<rect x="429.5" y="107" class="st3" width="18" height="18"/>
<rect x="458.5" y="107" class="st3" width="18" height="18"/>
<rect x="401" y="148" class="st3" width="18" height="18"/>
<rect x="430" y="148" class="st3" width="18" height="18"/>
<rect x="459" y="148" class="st3" width="18" height="18"/>
<rect x="401.5" y="189" class="st3" width="18" height="18"/>
<rect x="430.5" y="189" class="st3" width="18" height="18"/>
<rect x="459.5" y="189" class="st3" width="18" height="18"/>
<rect x="402" y="230" class="st3" width="18" height="18"/>
<rect x="431" y="230" class="st3" width="18" height="18"/>
<rect x="460" y="230" class="st3" width="18" height="18"/>
<rect x="402.5" y="271" class="st3" width="18" height="18"/>
<rect x="431.5" y="271" class="st3" width="18" height="18"/>
<rect x="460.5" y="271" class="st3" width="18" height="18"/>
<rect x="403" y="312" class="st3" width="18" height="18"/>
<rect x="432" y="312" class="st3" width="18" height="18"/>
<rect x="461" y="312" class="st3" width="18" height="18"/>
<rect x="403.5" y="353" class="st3" width="18" height="18"/>
<rect x="432.5" y="353" class="st3" width="18" height="18"/>
<rect x="461.5" y="353" class="st3" width="18" height="18"/>
<rect x="404" y="394" class="st3" width="18" height="18"/>
<rect x="433" y="394" class="st3" width="18" height="18"/>
<rect x="433" y="442" class="st3" width="18" height="34"/>
<rect x="462" y="394" class="st3" width="18" height="18"/>
<rect x="498" y="40" class="st0" width="8" height="34"/>
<rect x="635" y="218" class="st2" width="14" height="20.7"/>
<rect x="529" y="237" class="st2" width="119" height="240"/>
<rect x="648" y="237" class="st0" width="48" height="240"/>
<rect x="552.5" y="271" class="st3" width="18" height="18"/>
<rect x="581.5" y="271" class="st3" width="18" height="18"/>
<rect x="610.5" y="271" class="st3" width="18" height="18"/>
<rect x="553" y="312" class="st3" width="18" height="18"/>
<rect x="582" y="312" class="st3" width="18" height="18"/>
<rect x="611" y="312" class="st3" width="18" height="18"/>
<rect x="553.5" y="353" class="st3" width="18" height="18"/>
<rect x="582.5" y="353" class="st3" width="18" height="18"/>
<rect x="611.5" y="353" class="st3" width="18" height="18"/>
<rect x="554" y="394" class="st3" width="18" height="18"/>
<rect x="583" y="394" class="st3" width="18" height="18"/>
<rect x="583" y="442" class="st3" width="18" height="34"/>
<rect x="612" y="394" class="st3" width="18" height="18"/>
<rect x="648" y="218" class="st0" width="8" height="20.2"/>
<rect x="0.2" y="475.8" class="st0" width="888" height="2.2"/>
<circle class="st2" cx="732.7" cy="404" r="26"/>
<path class="st4" d="M752,386.6c5.7,13.2-0.5,28.5-13.7,34.2c-10.3,4.4-22.2,1.7-29.7-6.6c5.7,13.2,21,19.4,34.2,13.7
	c13.2-5.7,19.4-21,13.7-34.2C755.4,391.1,753.9,388.8,752,386.6L752,386.6z"/>
<polygon class="st0" points="732.7,404 732.8,404 734.1,477.9 731.4,477.9 "/>
<rect x="732.6" y="444.2" transform="matrix(0.8849 -0.4659 0.4659 0.8849 -122.5917 393.6334)" class="st0" width="4.9" height="1.3"/>
<circle class="st2" cx="809.2" cy="365.6" r="39.6"/>
<path class="st4" d="M838.7,339.2c8.6,20.1-0.7,43.4-20.8,52c-15.6,6.7-33.8,2.6-45.1-10.1c8.6,20.1,31.9,29.4,52,20.8
	c20.1-8.6,29.4-31.9,20.8-52C843.8,346,841.5,342.3,838.7,339.2z"/>
<polygon class="st0" points="809.3,365.6 809.4,365.6 811.4,477.9 807.3,477.9 "/>
<rect x="809.1" y="426.6" transform="matrix(0.8849 -0.4659 0.4659 0.8849 -105.618 427.8902)" class="st0" width="7.4" height="2"/>
<circle class="st2" cx="26.7" cy="403" r="26"/>
<path class="st4" d="M46,385.6c5.7,13.2-0.5,28.5-13.7,34.2c-10.3,4.4-22.2,1.7-29.7-6.6c5.7,13.2,21,19.4,34.2,13.7
	s19.4-21,13.7-34.2C49.4,390.1,47.9,387.8,46,385.6L46,385.6z"/>
<polygon class="st0" points="26.7,403 26.8,403 28.1,476.9 25.4,476.9 "/>
<rect x="26.6" y="443.2" transform="matrix(0.8849 -0.4659 0.4659 0.8849 -203.4156 64.6213)" class="st0" width="4.9" height="1.3"/>
<path class="st0" d="M606.4,37.3l9.2-7.4c-7.2-0.8-10.1,3.1-11.3,6.2c-5.6-2.3-11.7,0.7-11.7,0.7l18.4,6.7
	C610.1,41.1,608.5,38.9,606.4,37.3z"/>
<path class="st0" d="M144.4,74.3l9.2-7.4c-7.2-0.8-10.1,3.1-11.3,6.2c-5.6-2.3-11.7,0.7-11.7,0.7l18.4,6.7
	C148.1,78.1,146.5,75.9,144.4,74.3z"/>
<path class="st0" d="M746.4,112.3l9.2-7.4c-7.2-0.8-10.1,3.1-11.3,6.2c-5.6-2.3-11.7,0.7-11.7,0.7l18.4,6.7
	C750.1,116.1,748.5,113.9,746.4,112.3z"/>
<path class="st0" d="M220.4,54.3l9.2-7.4c-7.2-0.8-10.1,3.1-11.3,6.2c-5.6-2.3-11.7,0.7-11.7,0.7l18.4,6.7
	C224.1,58.1,222.5,55.9,220.4,54.3z"/>
<path class="st0" d="M237.4,134.3l9.2-7.4c-7.2-0.8-10.1,3.1-11.3,6.2c-5.6-2.3-11.7,0.7-11.7,0.7l18.4,6.7
	C241.1,138.1,239.5,135.9,237.4,134.3z"/>
<path class="st0" d="M595.4,176.3l9.2-7.4c-7.2-0.8-10.1,3.1-11.3,6.2c-5.6-2.3-11.7,0.7-11.7,0.7l18.4,6.7
	C599.1,180.1,597.5,177.9,595.4,176.3z"/>
<polygon class="st0" points="106,456 44,456 44,458 53.7,458 53.7,477 55.7,477 55.7,458 93.3,458 93.3,477 95.3,477 95.3,458 
	106,458 "/>
<path class="st0" d="M169,464c-2.4,0-4.9,0.6-7,1.9c-6.1-5.5-15.6-5.1-21.2,1.1c-2.5,2.8-3.9,6.3-3.9,10.1h45.9
	C182.4,469.7,176.3,464,169,464z"/>
<path class="st0" d="M406,464c-2.4,0-4.9,0.6-7,1.9c-6.1-5.5-15.6-5.1-21.2,1.1c-2.5,2.8-3.9,6.3-3.9,10.1h45.9
	C419.4,469.7,413.3,464,406,464z"/>
<path class="st0" d="M561,464c-2.4,0-4.9,0.6-7,1.9c-6.1-5.5-15.6-5.1-21.2,1.1c-2.5,2.8-3.9,6.3-3.9,10.1h45.9
	C574.4,469.7,568.3,464,561,464z"/>
<path class="st0" d="M765,464c-2.4,0-4.9,0.6-7,1.9c-6.1-5.5-15.6-5.1-21.2,1.1c-2.5,2.8-3.9,6.3-3.9,10.1h45.9
	C778.4,469.7,772.3,464,765,464z"/>
<path class="st0" d="M863,464c-2.4,0-4.9,0.6-7,1.9c-6.1-5.5-15.6-5.1-21.2,1.1c-2.5,2.8-3.9,6.3-3.9,10.1h45.9
	C876.4,469.7,870.3,464,863,464z"/>
<polygon class="st0" points="129,407 113,407 113,423 120.4,423 120.4,476.9 122.4,476.9 122.4,423 129,423 "/>
<rect x="44.1" y="450" class="st0" width="62" height="2"/>
<rect x="44.1" y="445" class="st0" width="62" height="2"/>
<rect x="44.1" y="440" class="st0" width="62" height="2"/>
</svg>
